<?xml version="1.0" encoding="utf-8"?>
<!-- Svg Vector Icons : http://www.onlinewebfonts.com/icon -->
<!DOCTYPE svg PUBLIC "-//W3C//DTD SVG 1.1//EN" "http://www.w3.org/Graphics/SVG/1.1/DTD/svg11.dtd">
<svg version="1.1" xmlns="http://www.w3.org/2000/svg" xmlns:xlink="http://www.w3.org/1999/xlink" x="0px" y="0px" viewBox="0 0 256 256" enable-background="new 0 0 256 256" xml:space="preserve">
<metadata> Svg Vector Icons : http://www.onlinewebfonts.com/icon </metadata>
<g><g><path fill="#000000" d="M100.1,148.6l-39.8,39.8l-7.1-7.1l39.8-39.8L82,130.4l-51,51l0,0l0,0l0,0v0L10.3,245l63.5-20.6l0,0h0h0l0,0l51-51L100.1,148.6z M141.2,93.4L159.6,75l7.1,7.1l-18.4,18.4l24.7,24.7l29.4-29.4l-42.9-42.8l-29.4,29.4L141.2,93.4z M202.2,10.1l-28.2,28.2l42.9,42.8L245.1,53L202.2,10.1z M192.6,143.1c-5.1,0-10.5,1.7-15.9,4.4l-68.2-68.2c2.7-5.4,4.4-10.8,4.4-15.7c0-27.1-25.8-53.4-52.9-53.4c-0.2,0-0.3,0-0.5,0c-0.1,0-3.2,3.1-4.9,4.8c21.9,21.9,20.1,18.3,20.1,31.7c0,10.9-17.5,28.1-28.1,28.1c-2.3,0-4.1,0-5.7,0c-7.4,0-7.5-1.6-26.1-20.1c-1.8,1.7-4.8,4.8-4.8,4.9C10.3,86.9,36.1,113,63.4,113c4.9,0,10.2-1.6,15.4-4.2l68.5,68.4c-2.6,5.2-4.1,10.4-4.1,15.2c0,27.1,25.8,53.4,52.9,53.4c0.1,0,0.3,0,0.5,0c0.1,0,3.2-3.1,4.9-4.8c-21.9-21.9-20.1-18.3-20.1-31.7c0-10.9,17.4-28.1,28.1-28.1c2.3,0,4.1,0,5.7,0c7.4,0,7.5,1.6,26.1,20.1c1.7-1.7,4.8-4.8,4.8-4.9C245.6,169.2,219.9,143.1,192.6,143.1L192.6,143.1z"/></g></g>
</svg>